<svg id="Layer_1" data-name="Layer 1" xmlns="http://www.w3.org/2000/svg" width="1085.9" height="346.7" viewBox="0 0 1085.9 346.7"><defs><style>.cls-1{fill:#fff;stroke:#e1e4e5;stroke-linecap:round;stroke-linejoin:round;stroke-width:4px;}</style></defs><title>Artboard 1</title><g id="Image_1" data-name="Image 1"><path class="cls-1" d="M418,99.84c13.93,0,7.41-22.08-10.23-16.81-1-30.66-51-53.1-71.62-11.74-5.84-4.62-19,4.11-16.06,11.74a101.48,101.48,0,0,0-15.57,2.3c-9.17,2.3-7.36,14.41,2.1,14.32Z"/><path class="cls-1" d="M767.41,119.93H705.74c-5,0-7.15-6.47-3.06-9.33l.17-.12c5.82-4,13.45-3.64,13.45-3.64S717.4,85.2,737.94,85.2c10.16,0,18.37,17.36,18.37,17.36s13.82,0,16.1,10.91A5.22,5.22,0,0,1,767.41,119.93Z"/><path class="cls-1" d="M705,97.17,847.88,344.7H532.93L675.85,97.17A16.81,16.81,0,0,1,705,97.17Z"/><path class="cls-1" d="M778.23,224.07,705,97.17a16.81,16.81,0,0,0-29.12,0L601.19,226.48a12.62,12.62,0,0,0-1.06,10.25l.64,1.94a12.62,12.62,0,0,0,21.71,4.11L657,201.17a12.62,12.62,0,0,1,18.75-.76l18.47,18.93a12.62,12.62,0,0,0,20-2.59l.17-.3a12.62,12.62,0,0,1,20.28-2.31l23.1,25.15a12.62,12.62,0,0,0,19.32-.87l.28-.36A12.62,12.62,0,0,0,778.23,224.07Z"/><line class="cls-1" x1="2" y1="344.7" x2="1083.9" y2="344.7"/><path class="cls-1" d="M381.32,99.53,522.88,344.7H210.93L352.49,99.53A16.65,16.65,0,0,1,381.32,99.53Z"/><path class="cls-1" d="M428.92,182,381.32,99.53a16.65,16.65,0,0,0-28.84,0l-48.58,84.14a7.58,7.58,0,0,0-1,4.28l.7,10.83a7.58,7.58,0,0,0,13.54,4.17L337,177.56a7.58,7.58,0,0,1,12.56.9l.12.21a7.58,7.58,0,0,0,13,.27l9.31-14.81a7.58,7.58,0,0,1,12.55-.42L410.87,200a7.58,7.58,0,0,0,12.78-.82l5.35-9.77A7.58,7.58,0,0,0,428.92,182Z"/><path class="cls-1" d="M583.82,10.33,776.88,344.7H361.93L555,10.33A16.65,16.65,0,0,1,583.82,10.33Z"/><path class="cls-1" d="M652.85,129.88l-69-119.56a16.65,16.65,0,0,0-28.84,0l-84.8,146.87A21.47,21.47,0,0,0,467.92,173l.09.37a15.61,15.61,0,0,0,26.64,6.9l27.19-29.42a17,17,0,0,1,26.21,1.57l.21.29a12.56,12.56,0,0,0,19.05,1.51l.21-.21a12.23,12.23,0,0,1,18.71,1.7l14.33,20.74a11.82,11.82,0,0,0,21.26-4.12L629,140.67a7.81,7.81,0,0,1,12.84-4.08l1.3,1.17C648.48,142.6,656.46,136.14,652.85,129.88Z"/><line class="cls-1" x1="505.9" y1="210.7" x2="435.9" y2="344.7"/><line class="cls-1" x1="514.63" y1="195.58" x2="530.13" y2="164.08"/><path class="cls-1" d="M574.51,50.21H632.6c5.19,0,7.43-6.72,3.18-9.71l-.18-.13c-6.05-4.16-14-3.78-14-3.78s-1.13-22.5-22.5-22.5c-19.32,0-27,19-29.8,29.41A5.36,5.36,0,0,0,574.51,50.21Z"/><path class="cls-1" d="M458.2,122H570.1c10.5,0,10-8.65,6.59-11.66s-10.46-1.84-10.46-1.84a16.29,16.29,0,0,0-8.88-8.65A24.17,24.17,0,0,0,545,98.59a10.44,10.44,0,0,0-3.86-7.3,13.89,13.89,0,0,0-9-3s-3.54-22-27.16-22S478.65,87,478.65,87a15,15,0,0,0-9.16,3.54,13.46,13.46,0,0,0-4.34,7.55s-12.9-1.74-16.71,9.39C446.17,114.13,450.84,122,458.2,122Z"/><line class="cls-1" x1="627.63" y1="195.58" x2="642.63" y2="233.08"/><rect class="cls-1" x="255.57" y="234.55" width="3.64" height="41.31"/><polygon class="cls-1" points="257.39 227.53 267.72 245.41 278.05 263.3 257.39 255.14 236.74 263.3 247.07 245.41 257.39 227.53"/><polygon class="cls-1" points="257.39 218.27 266.17 233.47 274.94 248.67 257.39 241.73 239.84 248.67 248.62 233.47 257.39 218.27"/><polygon class="cls-1" points="257.39 208.15 265.12 221.52 272.84 234.9 257.39 228.79 241.95 234.9 249.67 221.52 257.39 208.15"/><rect class="cls-1" x="611.05" y="268.05" width="3.64" height="41.31"/><polygon class="cls-1" points="612.88 261.03 623.2 278.92 633.53 296.8 612.88 288.64 592.22 296.8 602.55 278.92 612.88 261.03"/><polygon class="cls-1" points="612.88 251.77 621.65 266.97 630.43 282.17 612.88 275.23 595.33 282.17 604.1 266.97 612.88 251.77"/><polygon class="cls-1" points="612.88 241.64 620.6 255.02 628.32 268.39 612.88 262.29 597.43 268.39 605.15 255.02 612.88 241.64"/><rect class="cls-1" x="357.3" y="221.15" width="3.79" height="42.91"/><polygon class="cls-1" points="359.19 213.86 369.92 232.44 380.65 251.03 359.19 242.54 337.74 251.03 348.46 232.44 359.19 213.86"/><polygon class="cls-1" points="359.19 204.24 368.31 220.03 377.42 235.82 359.19 228.61 340.96 235.82 350.08 220.03 359.19 204.24"/><polygon class="cls-1" points="359.19 193.73 367.21 207.62 375.24 221.51 359.19 215.17 343.15 221.51 351.17 207.62 359.19 193.73"/><rect class="cls-1" x="669.96" y="226.53" width="6.05" height="68.54"/><polygon class="cls-1" points="672.99 214.88 690.12 244.56 707.25 274.24 672.99 260.69 638.72 274.24 655.85 244.56 672.99 214.88"/><polygon class="cls-1" points="672.99 199.53 687.54 224.74 702.1 249.95 672.99 238.44 643.87 249.95 658.43 224.74 672.99 199.53"/><polygon class="cls-1" points="672.99 182.73 685.8 204.92 698.61 227.11 672.99 216.98 647.36 227.11 660.17 204.92 672.99 182.73"/><rect class="cls-1" x="167.58" y="267.05" width="3.64" height="41.31"/><polygon class="cls-1" points="169.4 260.03 179.73 277.92 190.05 295.8 169.4 287.64 148.74 295.8 159.07 277.92 169.4 260.03"/><polygon class="cls-1" points="169.4 250.77 178.17 265.97 186.95 281.17 169.4 274.23 151.85 281.17 160.62 265.97 169.4 250.77"/><polygon class="cls-1" points="169.4 240.65 177.12 254.02 184.84 267.39 169.4 261.29 153.95 267.39 161.68 254.02 169.4 240.65"/><rect class="cls-1" x="796.22" y="241.09" width="4.69" height="53.21"/><polygon class="cls-1" points="798.57 232.05 811.87 255.09 825.17 278.13 798.57 267.61 771.96 278.13 785.26 255.09 798.57 232.05"/><polygon class="cls-1" points="798.57 220.12 809.87 239.7 821.17 259.27 798.57 250.34 775.96 259.27 787.26 239.7 798.57 220.12"/><polygon class="cls-1" points="798.57 207.08 808.51 224.31 818.46 241.54 798.57 233.67 778.67 241.54 788.62 224.31 798.57 207.08"/><rect class="cls-1" x="227.73" y="232.26" width="4.84" height="54.81"/><polygon class="cls-1" points="230.15 222.94 243.85 246.68 257.55 270.41 230.15 259.58 202.74 270.41 216.44 246.68 230.15 222.94"/><polygon class="cls-1" points="230.15 210.66 241.79 230.82 253.43 250.99 230.15 241.78 206.86 250.99 218.5 230.82 230.15 210.66"/><polygon class="cls-1" points="230.15 197.23 240.39 214.97 250.64 232.72 230.15 224.62 209.65 232.72 219.9 214.97 230.15 197.23"/><path class="cls-1" d="M81.9,343.37s116-77.91,279-79c163.74-1.1,294,76.33,306,80.33Z"/><path class="cls-1" d="M538.4,343.63s92.9-62.39,223.44-63.27C893,279.48,997.29,341.5,1006.9,344.7Z"/><path class="cls-1" d="M502.12,282.88c-11,20.9-32.14,25.55-54.2,27.51-21.21,1.89-42.33,1.34-63.62,1.11-31.76-.35-61.46,10.65-83.84,33.2"/></g></svg>